<?xml version="1.0" standalone="no"?>
<!DOCTYPE svg PUBLIC "-//W3C//DTD SVG 20010904//EN"
 "http://www.w3.org/TR/2001/REC-SVG-20010904/DTD/svg10.dtd">
<svg version="1.0" xmlns="http://www.w3.org/2000/svg"
 width="928.000000pt" height="928.000000pt" viewBox="0 0 928.000000 928.000000"
 preserveAspectRatio="xMidYMid meet">
<metadata>
Created by potrace 1.14, written by Peter Selinger 2001-2017
</metadata>
<g transform="translate(0.000000,928.000000) scale(0.100000,-0.100000)"
fill="#000000" stroke="none">
<path d="M294 9203 c3 -43 10 -93 15 -111 5 -17 8 -32 6 -32 -15 0 101 -278
126 -300 3 -3 21 -27 40 -54 48 -69 134 -153 219 -217 74 -54 249 -137 307
-144 11 -2 31 -6 43 -10 12 -4 34 -9 48 -12 29 -6 651 -11 2437 -17 970 -4
1200 -7 1200 -15 0 -1 23 -4 50 -6 53 -4 79 -7 210 -31 161 -28 382 -82 483
-118 23 -8 42 -13 42 -9 0 3 6 1 13 -4 6 -5 41 -20 77 -32 65 -22 73 -25 140
-54 131 -56 193 -84 247 -113 34 -18 63 -30 66 -28 2 3 10 -2 17 -11 7 -8 16
-15 21 -15 5 0 60 -31 122 -68 61 -37 123 -75 136 -83 14 -7 33 -21 43 -30 10
-9 30 -22 45 -30 15 -8 34 -20 43 -27 8 -7 60 -47 115 -90 55 -42 105 -81 111
-87 6 -5 40 -35 75 -65 112 -97 275 -265 384 -395 27 -33 54 -65 60 -71 5 -7
19 -24 30 -40 11 -15 31 -42 45 -60 14 -18 36 -49 50 -69 14 -20 36 -50 48
-66 13 -16 21 -29 17 -29 -3 0 5 -15 19 -32 72 -96 232 -400 309 -588 68 -168
160 -449 172 -525 2 -11 10 -49 19 -85 16 -71 25 -111 31 -150 2 -14 6 -38 9
-55 13 -83 18 -118 22 -157 2 -24 7 -70 10 -103 10 -88 10 -506 1 -610 -16
-178 -22 -223 -47 -350 -10 -55 -21 -112 -24 -127 -6 -37 -55 -229 -63 -248
-7 -17 -10 -27 -17 -55 -2 -11 -21 -65 -41 -120 -19 -55 -37 -104 -39 -110
-10 -31 -70 -171 -111 -260 -18 -38 -35 -77 -39 -85 -3 -8 -22 -42 -41 -75
-19 -33 -45 -80 -57 -105 -13 -25 -31 -54 -40 -64 -10 -11 -18 -23 -18 -28 0
-5 -15 -30 -32 -56 -18 -26 -37 -55 -43 -64 -21 -35 -146 -205 -171 -233 -14
-16 -38 -46 -53 -65 -52 -68 -68 -86 -232 -249 -184 -184 -194 -193 -294 -271
-38 -30 -75 -59 -82 -65 -7 -5 -18 -15 -25 -21 -23 -19 -232 -159 -288 -193
-139 -85 -358 -197 -490 -250 -58 -23 -114 -46 -125 -51 -11 -5 -56 -21 -100
-36 -44 -14 -89 -29 -100 -34 -11 -5 -36 -12 -55 -16 -19 -3 -39 -9 -45 -12
-5 -4 -14 -7 -20 -8 -5 -1 -47 -11 -92 -23 -45 -12 -91 -21 -102 -21 -12 0
-21 -5 -21 -11 0 -5 -3 -8 -8 -5 -4 2 -30 0 -57 -5 -28 -5 -63 -12 -80 -14
-16 -3 -41 -8 -55 -10 -14 -3 -45 -8 -70 -11 -58 -6 -113 -13 -170 -20 -25 -4
-576 -8 -1225 -10 -1877 -6 -2328 -10 -2360 -18 -16 -4 -34 -9 -40 -10 -40
-10 -103 -28 -120 -35 -119 -51 -197 -95 -264 -147 -57 -46 -161 -158 -199
-216 -23 -35 -46 -68 -52 -75 -5 -7 -10 -16 -10 -20 0 -5 -8 -24 -19 -43 -44
-84 -74 -199 -87 -338 l-7 -72 2169 3 c1193 2 2201 6 2239 10 39 4 88 9 110
11 22 3 65 7 95 10 30 4 96 13 145 22 50 8 106 17 125 20 19 3 55 10 80 16 25
5 55 12 67 14 110 21 411 103 483 132 14 5 28 10 32 11 31 6 182 63 196 74 6
5 12 7 12 4 0 -5 53 16 135 53 42 19 120 53 125 55 47 18 130 60 130 67 0 4 7
8 15 8 8 0 29 8 47 18 18 10 60 34 93 52 109 60 200 115 203 122 2 5 10 8 17
8 8 0 20 6 27 13 7 6 67 48 133 92 66 44 122 82 125 85 3 3 34 28 70 55 36 27
67 53 68 57 2 4 10 8 17 8 7 0 15 3 17 8 2 4 21 22 43 41 140 117 298 264 379
350 23 24 62 66 88 93 27 27 48 52 48 55 0 3 12 18 28 32 15 15 54 60 87 101
33 41 62 77 65 80 43 41 316 441 342 501 7 16 15 29 19 29 3 0 18 27 34 60 16
33 32 60 37 60 4 0 8 9 8 19 0 11 3 21 8 23 7 3 53 93 130 258 37 78 142 332
147 355 1 6 5 17 8 25 17 44 79 245 102 330 1 3 6 23 13 44 6 22 9 43 6 48 -3
4 -1 8 4 8 5 0 9 6 9 13 1 6 10 53 21 102 11 50 23 104 26 120 3 17 7 41 11
55 3 14 8 42 10 64 2 21 7 46 10 56 3 10 7 45 10 79 2 33 6 64 9 69 2 4 7 41
10 82 4 41 9 109 13 150 15 162 8 609 -13 800 -11 104 -13 115 -14 120 -2 3
-2 8 -2 12 1 5 -22 148 -34 208 -3 14 -9 49 -14 78 -5 30 -12 61 -14 70 -3 10
-7 28 -10 42 -27 138 -116 435 -185 620 -18 47 -36 94 -41 105 -5 11 -28 63
-51 115 -56 129 -119 259 -141 293 -11 15 -17 27 -13 27 3 0 -6 17 -20 37 -14
21 -25 41 -25 45 0 12 -162 273 -171 276 -5 2 -9 8 -9 13 0 10 -93 148 -144
214 -17 22 -34 45 -38 50 -24 32 -122 154 -141 175 -12 14 -49 57 -82 95 -93
106 -278 289 -405 400 -121 106 -266 225 -275 225 -4 0 -32 21 -59 45 -26 24
-256 175 -265 175 -6 0 -11 5 -11 10 0 6 -4 10 -8 10 -5 0 -50 25 -100 55 -50
30 -95 55 -99 55 -5 0 -19 9 -33 20 -14 11 -32 20 -42 20 -9 0 -18 4 -20 8 -6
16 -265 136 -433 202 -60 23 -119 46 -130 50 -29 12 -59 23 -65 25 -3 1 -43
14 -90 29 -47 15 -92 29 -100 31 -8 2 -15 4 -15 5 0 1 -7 3 -15 5 -8 1 -35 9
-60 16 -25 7 -47 13 -50 14 -67 15 -118 28 -130 32 -19 7 -27 9 -65 16 -16 3
-41 8 -55 11 -14 3 -38 8 -55 11 -16 3 -70 12 -120 21 -49 9 -103 17 -120 19
-16 2 -30 4 -30 5 0 1 -22 4 -50 6 -54 4 -115 10 -185 21 -25 3 -1036 8 -2248
10 l-2203 4 5 -78z"/>
<path d="M1514 7421 c-3 -4 -9 -6 -12 -6 -15 0 -79 -30 -115 -53 -20 -14 -54
-48 -75 -76 -20 -28 -41 -56 -47 -62 -5 -6 -25 -29 -43 -52 -19 -23 -44 -52
-55 -65 -12 -12 -35 -40 -52 -62 -16 -21 -40 -50 -52 -64 -33 -38 -39 -45 -96
-114 -28 -34 -55 -63 -59 -65 -4 -2 -8 -8 -8 -13 0 -5 -8 -17 -17 -27 -21 -22
-63 -72 -213 -252 -153 -185 -191 -271 -192 -430 0 -73 7 -134 23 -194 33
-122 125 -290 208 -379 66 -71 157 -157 166 -157 3 0 13 -8 23 -17 43 -41 95
-83 102 -83 5 0 10 -4 12 -9 2 -4 62 -56 133 -115 72 -59 139 -114 150 -124
11 -10 58 -49 105 -87 47 -38 87 -72 90 -75 5 -5 90 -75 133 -110 11 -8 24
-20 31 -25 6 -6 36 -30 66 -55 30 -25 57 -47 60 -50 5 -5 91 -76 133 -110 11
-8 24 -20 31 -25 6 -6 36 -30 66 -55 30 -25 71 -59 90 -77 19 -18 38 -33 41
-33 3 0 17 -10 31 -22 64 -59 95 -84 118 -99 14 -9 36 -27 50 -41 14 -13 63
-55 110 -93 47 -38 90 -73 95 -79 6 -6 26 -23 47 -38 20 -15 42 -33 50 -40 7
-7 51 -44 98 -82 47 -38 92 -76 101 -85 9 -9 31 -27 49 -41 18 -14 38 -30 44
-35 6 -6 47 -40 91 -75 44 -36 85 -69 91 -75 6 -5 30 -26 53 -45 74 -61 116
-99 111 -101 -3 -1 -228 -3 -500 -4 -493 -3 -639 -8 -725 -28 -11 -3 -40 -8
-65 -11 -25 -3 -60 -10 -78 -15 -18 -5 -36 -10 -40 -11 -57 -8 -246 -68 -337
-107 -82 -35 -206 -94 -215 -103 -3 -3 -18 -12 -35 -20 -27 -13 -56 -31 -119
-73 -10 -6 -38 -27 -62 -44 -23 -18 -47 -33 -51 -33 -5 0 -15 -9 -23 -20 -8
-11 -18 -20 -22 -20 -4 0 -16 -8 -26 -18 -11 -9 -42 -38 -69 -63 -42 -39 -93
-97 -167 -189 -26 -33 -86 -139 -119 -210 -31 -68 -77 -183 -77 -195 0 -3 0
-6 -1 -7 -15 -52 -39 -188 -44 -254 l-5 -70 2296 0 2296 1 61 66 c34 36 109
117 167 179 58 62 128 136 155 165 259 274 302 333 343 467 31 100 36 156 30
338 -1 27 -37 177 -53 221 -26 71 -69 164 -77 167 -5 2 -8 12 -8 22 0 10 -4
20 -8 22 -4 2 -19 21 -32 43 -63 106 -203 261 -334 371 -63 53 -71 59 -161
137 -32 29 -77 68 -99 87 -23 19 -46 40 -52 46 -6 5 -35 30 -64 55 -75 63
-141 121 -165 144 -12 11 -44 38 -71 60 -27 22 -53 44 -59 50 -5 6 -41 38 -80
71 -38 32 -79 68 -91 79 -11 11 -43 38 -69 60 -27 22 -61 51 -75 65 -14 14
-48 43 -76 65 -27 21 -58 48 -69 60 -11 11 -33 30 -49 42 -15 13 -58 49 -95
82 -36 32 -86 76 -111 97 -25 22 -56 49 -70 61 -14 12 -36 31 -50 43 -81 69
-126 108 -146 128 -13 12 -25 22 -28 22 -2 0 -17 12 -33 28 -16 15 -56 50 -88
78 -33 28 -87 74 -119 103 -33 28 -63 51 -68 51 -5 0 -6 5 -3 10 3 6 2 10 -4
10 -5 0 -21 10 -34 23 -14 12 -51 45 -83 72 -32 28 -78 67 -102 88 -25 21 -60
53 -78 70 l-34 32 497 1 c452 1 539 3 683 19 44 5 115 15 135 19 30 7 131 29
140 31 56 11 246 73 315 102 61 27 285 136 290 142 9 12 60 42 60 36 0 -4 6 0
14 8 8 7 38 29 68 48 29 18 55 36 58 39 3 3 23 18 45 34 63 46 226 216 270
281 22 33 43 62 48 63 4 2 7 10 7 17 0 8 6 20 13 27 39 41 133 283 152 391 14
78 17 97 24 154 4 35 5 66 2 71 -6 9 -4308 12 -4317 3z"/>
</g>
</svg>
