<?xml version="1.0" encoding="utf-8"?>
<!-- Generator: Adobe Illustrator 22.0.0, SVG Export Plug-In . SVG Version: 6.00 Build 0)  -->
<svg version="1.1" id="Layer_1" xmlns="http://www.w3.org/2000/svg" xmlns:xlink="http://www.w3.org/1999/xlink" x="0px" y="0px"
	 viewBox="0 0 299 492" style="enable-background:new 0 0 299 492;" xml:space="preserve">
<style type="text/css">
	.st0{fill:#FFFFFF;}
</style>
<g>
	<g>
		<path class="st0" d="M285.7,226.8L66.7,7.9C61.7,2.8,54.9,0,47.7,0s-14,2.8-19,7.9L12.5,24C2.1,34.5,2.1,51.6,12.5,62l183.9,183.9
			L12.3,430c-5.1,5.1-7.9,11.8-7.9,19c0,7.2,2.8,14,7.9,19l16.1,16.1c5.1,5.1,11.8,7.9,19,7.9s14-2.8,19-7.9L285.7,265
			c5.1-5.1,7.9-11.9,7.8-19.1C293.5,238.7,290.8,231.9,285.7,226.8z"/>
	</g>
</g>
</svg>
