<svg xmlns="http://www.w3.org/2000/svg" xmlns:xlink="http://www.w3.org/1999/xlink" width="54.241" height="57.769" viewBox="0 0 54.241 57.769"><defs><style>.a{fill:url(#a);}.b{fill:url(#b);}.c{opacity:0.09;}.d{fill:url(#c);}.e{fill:url(#d);}</style><linearGradient id="a" y1="0.5" x2="1" y2="0.5" gradientUnits="objectBoundingBox"><stop offset="0" stop-color="#ae3af5"/><stop offset="1" stop-color="#6067f3"/></linearGradient><linearGradient id="b" x1="0" y1="0.5" x2="1" y2="0.5" xlink:href="#a"/><linearGradient id="c" x1="0.214" y1="0.218" x2="1.257" y2="0.218" xlink:href="#a"/><linearGradient id="d" x1="0" y1="0.5" x2="1" y2="0.5" xlink:href="#a"/></defs><g transform="translate(-55.4 -66.4)"><g transform="translate(56.56 77.936)"><path class="a" d="M145.623,181.5a8.306,8.306,0,0,1-3.608,6.575,14.255,14.255,0,0,1-7.326,2.656,11.928,11.928,0,0,1-1.2.06H117.3v-7.817a1.2,1.2,0,0,1,.331-.812l.05-.05.07-.08a2,2,0,0,1,.6-.361l.08-.03a1.323,1.323,0,0,1,.3-.09,2.987,2.987,0,0,1,.531-.05Z" transform="translate(-112.256 -181.5)"/><path class="b" d="M96.994,435v9.241a.05.05,0,0,1-.04.05H68.4a8.351,8.351,0,0,1,3.548-6.575,13.519,13.519,0,0,1,6.194-2.546,16.2,16.2,0,0,1,1.724-.16H96.994Z" transform="translate(-68.257 -409.593)"/><path class="c" d="M136.455,192.05h-10.5l-5.312-8.5-.04-.13.05-.05.07-.08a2,2,0,0,1,.6-.361l.08-.03Z" transform="translate(-115.225 -182.76)"/><path class="c" d="M199.868,444.381h-1.022L182.8,435.1h8.138Z" transform="translate(-171.192 -409.683)"/><path class="d" d="M69.222,198.467c-2.245-1.864-2.927-4.771-1.5-6.474l3.8-4.57L72.54,186.2l24.946,21.608c2.977,2.486,3.869,6.314,1.994,8.569l-3.748,4.029Z" transform="translate(-66.975 -185.729)"/></g><path class="e" d="M80.827,66.4H55.4a6.044,6.044,0,0,0,6.044,6.033H80.827A22.858,22.858,0,0,1,103.608,95.2a23.012,23.012,0,0,1-22.931,22.931H61.443a6.044,6.044,0,0,0-6.044,6.033H80.676A29.05,29.05,0,0,0,109.641,95.2h0A28.894,28.894,0,0,0,80.827,66.4Z" transform="translate(0 0)"/></g></svg>