<svg xmlns="http://www.w3.org/2000/svg" xmlns:xlink="http://www.w3.org/1999/xlink" width="26" height="26" viewBox="0 0 26 26"><defs><style>.a{fill:url(#a);}</style><linearGradient id="a" x1="0.823" y1="0.198" x2="0.216" y2="0.834" gradientUnits="objectBoundingBox"><stop offset="0" stop-color="#ae3af5"/><stop offset="1" stop-color="#6067f3"/></linearGradient></defs><path class="a" d="M10.222,3A7.223,7.223,0,0,0,3,10.222V21.778A7.223,7.223,0,0,0,10.222,29H21.778A7.223,7.223,0,0,0,29,21.778V10.222A7.223,7.223,0,0,0,21.778,3ZM24.667,5.889a1.444,1.444,0,1,1-1.444,1.444A1.445,1.445,0,0,1,24.667,5.889ZM16,8.778A7.222,7.222,0,1,1,8.778,16,7.223,7.223,0,0,1,16,8.778Zm0,2.889A4.333,4.333,0,1,0,20.333,16,4.333,4.333,0,0,0,16,11.667Z" transform="translate(-3 -3)"/></svg>