<svg xmlns="http://www.w3.org/2000/svg" xmlns:xlink="http://www.w3.org/1999/xlink" width="531.126" height="164.444" viewBox="0 0 531.126 164.444"><defs><style>.a{fill:#fff;}.b{filter:url(#m);}.c{filter:url(#k);}.d{filter:url(#i);}.e{filter:url(#g);}.f{filter:url(#e);}.g{filter:url(#c);}.h{filter:url(#a);}</style><filter id="a" x="54.666" y="0" width="110" height="164.444" filterUnits="userSpaceOnUse"><feOffset dx="-16" input="SourceAlpha"/><feGaussianBlur stdDeviation="5" result="b"/><feFlood flood-opacity="0.502"/><feComposite operator="in" in2="b"/><feComposite in="SourceGraphic"/></filter><filter id="c" x="140.862" y="1.865" width="100.668" height="161.727" filterUnits="userSpaceOnUse"><feOffset dx="-16" input="SourceAlpha"/><feGaussianBlur stdDeviation="5" result="d"/><feFlood flood-opacity="0.502"/><feComposite operator="in" in2="d"/><feComposite in="SourceGraphic"/></filter><filter id="e" x="215.552" y="1.865" width="47.046" height="161.727" filterUnits="userSpaceOnUse"><feOffset dx="-19" input="SourceAlpha"/><feGaussianBlur stdDeviation="5" result="f"/><feFlood flood-opacity="0.502"/><feComposite operator="in" in2="f"/><feComposite in="SourceGraphic"/></filter><filter id="g" x="243.229" y="1.865" width="107.916" height="161.727" filterUnits="userSpaceOnUse"><feOffset dx="-16" input="SourceAlpha"/><feGaussianBlur stdDeviation="5" result="h"/><feFlood flood-opacity="0.502"/><feComposite operator="in" in2="h"/><feComposite in="SourceGraphic"/></filter><filter id="i" x="329.341" y="1.865" width="101.574" height="161.727" filterUnits="userSpaceOnUse"><feOffset dx="-16" input="SourceAlpha"/><feGaussianBlur stdDeviation="5" result="j"/><feFlood flood-opacity="0.502"/><feComposite operator="in" in2="j"/><feComposite in="SourceGraphic"/></filter><filter id="k" x="408.847" y="1.865" width="100.759" height="161.727" filterUnits="userSpaceOnUse"><feOffset dx="-16" input="SourceAlpha"/><feGaussianBlur stdDeviation="5" result="l"/><feFlood flood-opacity="0.502"/><feComposite operator="in" in2="l"/><feComposite in="SourceGraphic"/></filter><filter id="m" x="484.08" y="1.865" width="47.046" height="161.727" filterUnits="userSpaceOnUse"><feOffset dx="-19" input="SourceAlpha"/><feGaussianBlur stdDeviation="5" result="n"/><feFlood flood-opacity="0.502"/><feComposite operator="in" in2="n"/><feComposite in="SourceGraphic"/></filter></defs><g transform="translate(-437.274 -204.876)"><path class="a" d="M48.7-8.3a56.906,56.906,0,0,1-18.482-2.763A32.525,32.525,0,0,1,16.627-19.8,34.56,34.56,0,0,1,8.745-35.2l12.321-4.62q2.808,10.147,9.966,14.812T48.7-20.345q13.136,0,20.112-5.708t6.976-16.579v-3.9q0-6.976-3.443-11.46A24.2,24.2,0,0,0,63.6-65.054a111.891,111.891,0,0,0-13.906-5.39l-.544-.181-.544-.181-2.355-.815a132.856,132.856,0,0,1-18.029-6.7,31.021,31.021,0,0,1-11.551-9.648q-4.756-6.387-4.756-16.987v-3.261q0-11.234,4.53-18.889a28.8,28.8,0,0,1,13.318-11.642q8.788-3.986,21.471-3.986a47.228,47.228,0,0,1,16.941,2.718,27.557,27.557,0,0,1,11.687,8.38,39.146,39.146,0,0,1,7.066,14.631l-12.14,4.53q-2.99-9.513-8.7-13.861T51.235-130.69q-12.865,0-19.659,5.662t-6.795,16.262v3.261q0,6.976,3.85,11.325a26.5,26.5,0,0,0,9.558,6.795,161.544,161.544,0,0,0,15.4,5.436q.453.091.77.181a2.091,2.091,0,0,1,.589.272,5.167,5.167,0,0,1,.906.272,6.423,6.423,0,0,0,.815.272,92.605,92.605,0,0,1,16.534,6.7A30.867,30.867,0,0,1,84.257-64.012Q88.651-57.4,88.651-47.07v4.258q0,11.234-4.575,18.935a28.631,28.631,0,0,1-13.5,11.642Q61.653-8.3,48.7-8.3Z" transform="translate(428.529 362.616)"/><g class="h" transform="matrix(1, 0, 0, 1, 437.27, 204.88)"><path class="a" d="M151.923-8.3q-12.5,0-21.335-4.8a32.059,32.059,0,0,1-13.5-13.952q-4.666-9.15-4.666-22.105v-52.727q0-12.955,4.666-22.105a32.059,32.059,0,0,1,13.5-13.952q8.833-4.8,21.335-4.8t21.381,4.8a31.733,31.733,0,0,1,13.5,13.952q4.62,9.15,4.62,22.105v52.727q0,12.955-4.62,22.105A31.733,31.733,0,0,1,173.3-13.1Q164.425-8.3,151.923-8.3Zm0-12.5a29.42,29.42,0,0,0,14.359-3.261,21.366,21.366,0,0,0,9.014-9.467,33.439,33.439,0,0,0,3.08-14.994v-54a33.732,33.732,0,0,0-3.08-15.039,21.318,21.318,0,0,0-9.014-9.513,29.42,29.42,0,0,0-14.359-3.261,29.218,29.218,0,0,0-14.269,3.261,21.578,21.578,0,0,0-9.06,9.513,33.317,33.317,0,0,0-3.126,15.039v54a33.028,33.028,0,0,0,3.126,14.994,21.628,21.628,0,0,0,9.06,9.467A29.218,29.218,0,0,0,151.923-20.8Z" transform="translate(-26.76 157.74)"/></g><g class="g" transform="matrix(1, 0, 0, 1, 437.27, 204.88)"><path class="a" d="M220.96-141.282h13.046V-9.556H220.96ZM230.2-21.7h60.428v12.14H230.2Z" transform="translate(-49.1 158.15)"/></g><g class="f" transform="matrix(1, 0, 0, 1, 437.27, 204.88)"><path class="a" d="M330.2-9.556H317.156V-141.282H330.2Z" transform="translate(-67.6 158.15)"/></g><g class="e" transform="matrix(1, 0, 0, 1, 437.27, 204.88)"><path class="a" d="M370.569-21.7h30.984q11.506,0,17.3-5.708t5.8-16.851v-62.33q0-11.234-5.8-16.9t-17.3-5.662H370.569v-12.14h30.44q12.049,0,20.248,3.986a26.676,26.676,0,0,1,12.321,11.868q4.122,7.882,4.122,19.569v60.881q0,11.6-4.167,19.478a27.164,27.164,0,0,1-12.366,11.913q-8.2,4.032-20.248,4.032h-30.35Zm-9.784-119.587h13.046V-9.556H360.785Z" transform="translate(-86.56 158.15)"/></g><g class="d" transform="matrix(1, 0, 0, 1, 437.27, 204.88)"><path class="a" d="M467.086-141.282h13.046V-9.556H467.086ZM476.055-21.7h61.605v12.14H476.055Zm0-59.34h54.358V-68.9H476.055Zm0-60.246h61.605v12.14H476.055Z" transform="translate(-106.75 158.15)"/></g><g class="c" transform="matrix(1, 0, 0, 1, 437.27, 204.88)"><path class="a" d="M564.157-141.282H577.2V-9.556H564.157Zm9.06,61.424h53.452v12.14H573.217Zm0-61.424h60.7v12.14h-60.7Z" transform="translate(-124.31 158.15)"/></g><g class="b" transform="matrix(1, 0, 0, 1, 437.27, 204.88)"><path class="a" d="M673.982-9.556H660.937V-141.282h13.046Z" transform="translate(-142.86 158.15)"/></g></g></svg>