<svg xmlns="http://www.w3.org/2000/svg" xmlns:xlink="http://www.w3.org/1999/xlink" width="28" height="23.308" viewBox="0 0 28 23.308"><defs><style>.a{fill:url(#a);}</style><linearGradient id="a" x1="0.823" y1="0.384" x2="0.545" y2="0.77" gradientUnits="objectBoundingBox"><stop offset="0" stop-color="#ae3af5"/><stop offset="1" stop-color="#6067f3"/></linearGradient></defs><path class="a" d="M4.965,19.02c8.616-3.79,19.766-8.412,21.3-9.051,4.037-1.674,5.276-1.353,4.658,2.354C30.484,14.988,29.2,23.81,28.184,29.3c-.605,3.256-1.963,3.642-4.1,2.234-1.027-.678-6.21-4.106-7.335-4.911-1.027-.734-2.443-1.616-.667-3.354.632-.619,4.776-4.575,8-7.655a.479.479,0,0,0-.6-.745c-4.351,2.885-10.384,6.89-11.152,7.412a4.466,4.466,0,0,1-4.274.574c-1.511-.434-2.987-.952-3.561-1.149C2.291,20.949,2.816,19.966,4.965,19.02Z" transform="translate(-3.078 -9)"/></svg>