<svg xmlns="http://www.w3.org/2000/svg" xmlns:xlink="http://www.w3.org/1999/xlink" width="194.72" height="28" viewBox="0 0 194.72 28"><defs><style>.a{fill:url(#a);}</style><linearGradient id="a" x1="0.5" y1="0.256" x2="0.5" y2="1" gradientUnits="objectBoundingBox"><stop offset="0" stop-color="#ae3af5"/><stop offset="1" stop-color="#6067f3"/></linearGradient></defs><path class="a" d="M24.4-6.8a5.432,5.432,0,0,1,1,2.88,4.048,4.048,0,0,1-.46,1.94A3.574,3.574,0,0,1,23.48-.56a4.839,4.839,0,0,1-2.4.56H4.12V-6.32H13q1.12,0,1.12-.88a1.7,1.7,0,0,0-.2-.76L6.4-21.52a4.932,4.932,0,0,1-.32-.52v-.04l-.04-.08a1.575,1.575,0,0,1-.16-.32l-.84-1.96L2-28H24.76v6.64H17.48q-1.2,0-1.2.76a2.051,2.051,0,0,0,.36.88ZM54.6-26.24q1.48,1.8,1.48,6.4v12q0,4.76-1.44,6.32Q53.24,0,49.12,0H39.88q-3.96,0-5.72-1.88-1.72-1.96-1.72-7V-24.44L29.4-28H49.12Q53.16-28,54.6-26.24ZM46.96-8.2V-19.48a3.73,3.73,0,0,0-.32-1.9,1.582,1.582,0,0,0-1.36-.46h-2a1.645,1.645,0,0,0-1.38.46,3.541,3.541,0,0,0-.34,1.9V-8.2a3.6,3.6,0,0,0,.36,1.94,1.578,1.578,0,0,0,1.36.5h2a1.519,1.519,0,0,0,1.34-.5A3.781,3.781,0,0,0,46.96-8.2ZM60.08-28H72.16V-6.32h9.2V0H63.12V-24.44Zm25.28,0H97.44V0H88.4V-24.44Zm16.08,0h19.64q4.04,0,5.48,1.76,1.48,1.8,1.48,6.4v12q0,4.76-1.44,6.32Q125.2,0,121.08,0h-16.6V-24.44ZM118.92-8.2V-19.48a3.541,3.541,0,0,0-.34-1.9,1.588,1.588,0,0,0-1.34-.46h-3.72V-5.76h3.72a1.519,1.519,0,0,0,1.34-.5A3.781,3.781,0,0,0,118.92-8.2Zm32.12-3.031h-6.92V-6.32h10.44V0H135.08V-24.44L132.04-28h22.08v6.64h-10v4.529h6.92Zm26.52-5.6v5.6h-6.92V0H161.6V-24.44L158.56-28h22.08v6.64h-10v4.529ZM184.64-28h12.08V0h-9.04V-24.44Z" transform="translate(-2 28)"/></svg>