<svg xmlns="http://www.w3.org/2000/svg" xmlns:xlink="http://www.w3.org/1999/xlink" width="40.882" height="42.361" viewBox="0 0 40.882 42.361"><defs><style>.a{fill:url(#a);}.b{fill:url(#b);}.c{opacity:0.09;}.d{fill:url(#c);}</style><linearGradient id="a" y1="0.5" x2="1" y2="0.5" gradientUnits="objectBoundingBox"><stop offset="0" stop-color="#ae3af5"/><stop offset="1" stop-color="#6067f3"/></linearGradient><linearGradient id="b" x1="0" y1="0.5" x2="1" y2="0.5" xlink:href="#a"/><linearGradient id="c" x1="0.214" y1="0.218" x2="1.257" y2="0.218" xlink:href="#a"/></defs><path class="a" d="M151.879,181.5a10.14,10.14,0,0,1-4.4,8.027,17.4,17.4,0,0,1-8.944,3.243,14.564,14.564,0,0,1-1.468.073H117.3V183.3a1.468,1.468,0,0,1,.4-.991l.061-.061.086-.1a2.447,2.447,0,0,1,.734-.441l.1-.037a1.615,1.615,0,0,1,.367-.11,3.645,3.645,0,0,1,.649-.061Z" transform="translate(-111.142 -181.5)"/><path class="b" d="M103.309,435v11.282a.061.061,0,0,1-.049.061H68.4a10.2,10.2,0,0,1,4.332-8.027,16.5,16.5,0,0,1,7.562-3.108,19.765,19.765,0,0,1,2.1-.2h20.911Z" transform="translate(-68.226 -403.982)"/><path class="c" d="M139.957,194.071H127.134L120.649,183.7l-.049-.159.061-.061.086-.1a2.447,2.447,0,0,1,.734-.441l.1-.037Z" transform="translate(-114.038 -182.729)"/><path class="c" d="M203.638,446.43H202.39L182.8,435.1h9.936Z" transform="translate(-168.628 -404.07)"/><path class="d" d="M69.719,201.177c-2.741-2.276-3.573-5.824-1.835-7.9l4.637-5.58,1.248-1.493,30.455,26.381c3.634,3.035,4.723,7.709,2.435,10.462l-4.576,4.919Z" transform="translate(-66.975 -185.625)"/></svg>