<svg xmlns="http://www.w3.org/2000/svg" xmlns:xlink="http://www.w3.org/1999/xlink" width="28" height="22.75" viewBox="0 0 28 22.75"><defs><style>.a{fill:url(#a);}</style><linearGradient id="a" x1="0.659" y1="0.435" x2="0.223" y2="0.954" gradientUnits="objectBoundingBox"><stop offset="0" stop-color="#ae3af5"/><stop offset="1" stop-color="#6067f3"/></linearGradient></defs><path class="a" d="M28,4.684a10.6,10.6,0,0,1-3.268.934A6.208,6.208,0,0,0,27.3,2.465a10.645,10.645,0,0,1-3.614,1.4A6.108,6.108,0,0,0,19.369,2a5.725,5.725,0,0,0-5.719,5.715A4.315,4.315,0,0,0,13.768,9,15.96,15.96,0,0,1,1.982,3.048a5.022,5.022,0,0,0-.816,2.917A5.85,5.85,0,0,0,3.732,10.75a8.3,8.3,0,0,1-2.566-.7v.118a5.663,5.663,0,0,0,4.548,5.6A5.994,5.994,0,0,1,4.2,16a3.2,3.2,0,0,1-1.053-.119,5.538,5.538,0,0,0,5.368,3.969A11.664,11.664,0,0,1,1.4,22.3,5.808,5.808,0,0,1,0,22.184,16.346,16.346,0,0,0,8.75,24.75c10.619,0,16.333-8.75,16.333-16.333v-.7A11.978,11.978,0,0,0,28,4.684" transform="translate(0 -2)"/></svg>